# xmcd
#
# Track frame offsets:
#	150
#	17059
#	32118
#	48427
#	66430
#	82503
#	95969
#	116841
#	134397
#	154542
#	170747
#	187067
#	205167
#	225731
#	243044
#	258800
#	277573
#	291497
#	310224
#	328261
#
# Disc length: 4581 seconds
#
# Revision: 0
# Processed by: cddbd v1.5.2PL0 Copyright (c) Steve Scherf et al.
# Submitted via: EasyCDDAExtractor 16.0.8.1
#
DISCID=1c11e314
DTITLE=Nu Urban Traxx Volume 207 US
DYEAR=2014
DGENRE=R&B
TTITLE0=Ludacris ft. Miguel\n - Good Lovin'\n
TTITLE1=Rae Sremmurd\n - No Type\n
TTITLE2=B.o.B. ft. Trey Songz\n - Not For Long\n
TTITLE3=Tamar Braxton ft. Future\n - Let Me Know\n
TTITLE4=Dej Loaf\n - Try Me\n
TTITLE5=Iggy Azalea ft. MO\n - Beg For It\n
TTITLE6=Nicki Minaj ft. Drake and Lil Wayne\n - Only\n
TTITLE7=Adrian Marcel\n - Spending The Night Alone\n
TTITLE8=Rich Gang ft. Young Thug\n - Take Care\n
TTITLE9=Wash ft. French Montana\n - Can't Trust Thots\n
TTITLE10=Charlie Wilson\n - Goodnight Kisses\n
TTITLE11=Jeezy ft. Boosie Badazz\n - Beez Like\n
TTITLE12=ScHoolBoy Q\n - Hell Of A Night\n
TTITLE13=Yung Joc ft. T-Pain\n - Features\n
TTITLE14=Kevin Gates\n - Posed To Be In Love\n
TTITLE15=The Weeknd\n - Often\n
TTITLE16=Justine Skye ft. Tyga\n - Collide\n
TTITLE17=Ashanti ft. French Montana\n - Early I The Morning\n
TTITLE18=Jhene Aiko\n - The Pressure\n
TTITLE19=Driicky Graham ft. King Carter\n - I'm On\n
EXTD=
EXTT0=
EXTT1=
EXTT2=
EXTT3=
EXTT4=
EXTT5=
EXTT6=
EXTT7=
EXTT8=
EXTT9=
EXTT10=
EXTT11=
EXTT12=
EXTT13=
EXTT14=
EXTT15=
EXTT16=
EXTT17=
EXTT18=
EXTT19=
PLAYORDER=
